<?xml version="1.0" encoding="UTF-8" standalone="no"?>
<!-- Created with Inkscape (http://www.inkscape.org/) -->

<svg
   xmlns:dc="http://purl.org/dc/elements/1.1/"
   xmlns:cc="http://creativecommons.org/ns#"
   xmlns:rdf="http://www.w3.org/1999/02/22-rdf-syntax-ns#"
   xmlns:svg="http://www.w3.org/2000/svg"
   xmlns="http://www.w3.org/2000/svg"
   xmlns:sodipodi="http://sodipodi.sourceforge.net/DTD/sodipodi-0.dtd"
   xmlns:inkscape="http://www.inkscape.org/namespaces/inkscape"
   width="96"
   height="96"
   viewBox="0 0 25.399999 25.400001"
   version="1.1"
   id="svg8"
   sodipodi:docname="icon.svg"
   inkscape:version="0.92.1 r">
  <defs
     id="defs2" />
  <sodipodi:namedview
     id="base"
     pagecolor="#ffffff"
     bordercolor="#666666"
     borderopacity="1.0"
     inkscape:pageopacity="0.0"
     inkscape:pageshadow="2"
     inkscape:zoom="1.979899"
     inkscape:cx="45.365525"
     inkscape:cy="13.53018"
     inkscape:document-units="mm"
     inkscape:current-layer="layer1"
     showgrid="true"
     units="px"
     inkscape:window-width="1366"
     inkscape:window-height="699"
     inkscape:window-x="0"
     inkscape:window-y="0"
     inkscape:window-maximized="1"
     inkscape:snap-global="true">
    <inkscape:grid
       type="xygrid"
       id="grid4485" />
  </sodipodi:namedview>
  <metadata
     id="metadata5">
    <rdf:RDF>
      <cc:Work
         rdf:about="">
        <dc:format>image/svg+xml</dc:format>
        <dc:type
           rdf:resource="http://purl.org/dc/dcmitype/StillImage" />
        <dc:title></dc:title>
      </cc:Work>
    </rdf:RDF>
  </metadata>
  <g
     inkscape:label="Livello 1"
     inkscape:groupmode="layer"
     id="layer1"
     transform="translate(0,-271.59998)">
    <g
       id="g4555"
       transform="translate(0.19007276,-0.79670332)">
      <path
         id="path4487"
         transform="matrix(0.26458333,0,0,0.26458333,0,271.59998)"
         d="M 10,11 C 10,35.999987 2.5058608,56.062525 47.505859,61.0625 87.505858,56.062525 85,35.999987 85,11 70,20.999987 62.5,11.021838 47.5,21.021484 32.499998,11.021498 25,20.999647 10,11 Z M 28.359375,29.042969 C 36.834869,29.207915 42,33.812509 42,41 c -9.999999,5.000013 -25,-1.3e-5 -25,-10 4.21875,-1.406254 8.042877,-2.021575 11.359375,-1.957031 z m 38.28125,0 C 69.957123,28.978425 73.78125,29.593746 78,31 78,40.999987 63.000003,46.000013 53,41 53,33.812509 58.16513,29.207915 66.640625,29.042969 Z"
         style="fill:#af0051;fill-opacity:1;stroke:none;stroke-width:0.99999994px;stroke-linecap:butt;stroke-linejoin:miter;stroke-opacity:1"
         inkscape:connector-curvature="0" />
      <path
         inkscape:connector-curvature="0"
         id="path4529"
         d="m 2.6458333,286.41665 v 2.64583 l 9.9218747,2.65174 9.921875,-2.65174 v -2.64583 l -9.927915,2.65204 z"
         style="fill:#00a114;fill-opacity:1;stroke:none;stroke-width:0.26458332px;stroke-linecap:butt;stroke-linejoin:miter;stroke-opacity:1" />
      <path
         inkscape:connector-curvature="0"
         id="path4529-6"
         d="m 2.6458333,290.3854 v 2.64583 l 9.9218747,2.65174 9.921875,-2.65174 v -2.64583 l -9.927915,2.65204 z"
         style="fill:#00a114;fill-opacity:1;stroke:none;stroke-width:0.26458332px;stroke-linecap:butt;stroke-linejoin:miter;stroke-opacity:1" />
    </g>
  </g>
</svg>
